<?xml version="1.0" standalone="no"?>
<!DOCTYPE svg PUBLIC "-//W3C//DTD SVG 20010904//EN"
 "http://www.w3.org/TR/2001/REC-SVG-20010904/DTD/svg10.dtd">
<svg version="1.0" xmlns="http://www.w3.org/2000/svg"
 width="1024.000000pt" height="1024.000000pt" viewBox="0 0 1024.000000 1024.000000"
 preserveAspectRatio="xMidYMid meet">

<g transform="translate(0.000000,1024.000000) scale(0.100000,-0.100000)"
fill="#000000" stroke="none">
<path d="M4890 7825 c-139 -26 -311 -95 -427 -171 -89 -59 -258 -228 -320
-322 -65 -97 -125 -229 -154 -338 -17 -62 -23 -119 -26 -261 l-5 -182 -252 -3
-252 -3 -66 -33 c-83 -41 -168 -130 -200 -211 -21 -55 -22 -69 -30 -691 -5
-444 -4 -645 3 -668 21 -63 6 -61 559 -68 497 -7 505 -7 520 -28 77 -111 240
-260 355 -328 39 -23 76 -48 83 -57 7 -9 12 -48 12 -105 l0 -89 -80 -76 c-84
-79 -104 -117 -88 -161 5 -13 61 -77 124 -142 l116 -118 -91 -99 c-50 -54 -98
-104 -107 -111 -18 -15 -44 -63 -44 -81 0 -7 48 -61 107 -120 l106 -108 -66
-63 c-105 -99 -113 -82 198 -390 l200 -198 49 0 49 0 229 227 c126 126 231
238 234 250 10 37 -6 65 -87 149 -44 46 -79 86 -79 91 0 5 52 60 115 123 70
70 117 124 120 141 9 40 -13 73 -115 174 -50 50 -96 98 -102 109 -8 15 7 35
106 135 147 149 146 146 36 267 -78 85 -80 88 -80 138 l1 51 102 65 c101 64
241 192 332 303 l40 48 495 2 c272 1 503 6 513 11 47 23 47 25 47 696 0 611
-1 633 -21 692 -37 111 -108 192 -215 244 l-59 29 -251 3 -252 3 -5 182 c-5
198 -17 263 -77 406 -128 312 -443 581 -787 672 -103 27 -400 36 -513 14z
m445 -304 c164 -46 310 -135 426 -259 80 -86 131 -171 173 -291 29 -85 30 -90
33 -321 2 -142 8 -246 15 -264 21 -53 44 -56 408 -56 305 0 334 -1 368 -19 94
-48 102 -76 102 -381 l0 -250 -317 2 -316 3 -22 80 c-48 174 -160 359 -297
491 -103 99 -181 152 -312 214 -354 168 -798 136 -1116 -80 -213 -145 -412
-423 -464 -650 l-13 -55 -316 -3 -317 -2 0 248 c0 237 1 250 23 292 12 24 39
58 60 74 l39 31 346 5 c253 4 353 8 369 18 50 28 53 43 53 258 0 227 12 312
58 422 41 99 123 212 215 297 113 106 294 193 452 219 68 10 280 -3 350 -23z
m-47 -1156 c349 -73 627 -333 713 -664 24 -93 26 -287 4 -391 -41 -196 -180
-409 -348 -536 -68 -51 -193 -117 -272 -144 l-50 -17 -3 -177 -2 -177 27 -28
c16 -16 41 -43 57 -60 l30 -31 -31 -28 c-17 -15 -77 -76 -134 -135 l-103 -108
134 -134 133 -134 -91 -99 c-50 -54 -112 -118 -137 -141 l-46 -42 101 -104
c74 -76 99 -108 93 -119 -4 -8 -62 -69 -127 -136 l-120 -122 -118 123 c-65 68
-118 126 -118 130 0 3 34 40 75 81 l76 75 -119 124 -120 124 124 128 c68 70
124 135 124 143 0 9 -61 78 -136 155 l-136 139 85 92 86 93 -20 31 c-17 27
-19 51 -19 182 l0 150 -68 26 c-95 36 -218 110 -303 180 -140 116 -253 293
-300 471 -27 103 -30 295 -6 405 23 106 111 278 187 368 130 152 336 273 531
311 73 14 272 12 347 -4z m1570 -1087 l2 -178 -295 0 -295 0 0 174 0 175 38 3
c20 2 152 4 292 3 l255 0 3 -177z m-2898 -3 l0 -175 -295 0 -295 0 0 175 0
175 295 0 295 0 0 -175z"/>
<path d="M4959 5837 c-133 -56 -206 -149 -231 -296 -30 -174 54 -341 208 -417
55 -27 67 -29 174 -29 103 0 121 3 170 26 107 50 191 156 220 278 38 161 -54
347 -208 424 -60 29 -76 32 -172 35 -91 2 -112 -1 -161 -21z m219 -212 c72
-31 112 -86 112 -155 0 -52 -21 -92 -66 -127 -30 -22 -49 -28 -103 -31 -56 -3
-71 0 -101 20 -59 40 -82 84 -78 149 5 68 32 109 90 138 51 25 95 27 146 6z"/>
<path d="M3545 7760 c-206 -19 -397 -91 -549 -208 -200 -154 -342 -363 -409
-600 -20 -74 -21 -103 -27 -672 l-5 -595 -44 -6 c-62 -8 -91 -43 -91 -110 0
-64 33 -102 98 -112 l42 -7 0 -175 0 -175 -95 0 c-112 0 -157 -15 -179 -59
-20 -38 -20 -64 0 -106 27 -58 62 -67 250 -63 164 3 164 3 191 31 l28 27 5
958 c6 1045 2 980 65 1133 62 155 191 310 335 405 187 124 343 159 685 152
105 -3 124 0 154 17 45 27 72 64 73 104 2 63 -9 66 -240 67 -114 1 -243 -2
-287 -6z"/>
<path d="M6192 7760 c-71 -31 -25 -154 67 -180 20 -5 131 -10 247 -10 176 0
223 -3 287 -19 348 -90 618 -383 667 -726 6 -42 10 -425 10 -967 0 -545 4
-907 10 -922 19 -52 50 -61 220 -64 178 -3 210 6 245 70 18 34 19 40 5 80 -21
61 -59 78 -178 78 l-92 0 2 177 3 176 72 -2 c137 -4 193 30 193 118 -1 86 -40
111 -173 111 l-95 0 -5 578 c-5 643 -5 645 -76 817 -60 146 -126 248 -231 355
-52 54 -122 115 -155 137 -125 83 -277 148 -420 179 -84 19 -567 30 -603 14z"/>
<path d="M2037 5719 c-44 -23 -83 -79 -93 -132 -20 -114 108 -230 219 -197 50
15 113 72 128 117 36 110 -56 234 -173 233 -24 -1 -60 -10 -81 -21z"/>
<path d="M8025 4613 c-16 -8 -44 -28 -60 -44 l-31 -29 -973 -2 -973 -3 -34
-37 c-45 -50 -47 -103 -5 -150 l29 -33 990 4 990 3 36 -27 c71 -54 165 -44
234 26 69 68 75 163 15 237 -55 68 -149 92 -218 55z"/>
<path d="M2335 4531 c-40 -17 -60 -51 -60 -103 0 -43 4 -53 33 -79 l32 -29
178 0 c198 0 212 4 238 66 24 57 -4 124 -58 143 -36 13 -333 14 -363 2z"/>
<path d="M3152 4520 c-38 -24 -66 -81 -57 -118 3 -13 19 -37 35 -53 l28 -29
547 0 547 0 29 29 c33 34 38 74 13 126 -31 66 -25 65 -596 65 -497 0 -514 -1
-546 -20z"/>
<path d="M2037 4029 c-84 -44 -119 -157 -77 -244 66 -136 261 -135 322 2 70
158 -95 321 -245 242z"/>
<path d="M8035 4031 c-49 -22 -73 -48 -91 -98 -19 -56 -17 -103 9 -153 54
-108 183 -129 276 -44 50 45 65 81 59 149 -11 126 -137 199 -253 146z"/>
<path d="M2483 3955 c-42 -18 -68 -70 -59 -118 8 -41 50 -82 94 -92 l29 -6 7
-107 c15 -239 84 -405 247 -598 104 -123 179 -179 304 -229 153 -61 199 -65
758 -65 l509 0 28 29 c16 16 32 40 36 55 9 37 -13 85 -50 107 -29 18 -59 19
-519 19 -555 0 -585 3 -727 72 -142 69 -269 212 -338 380 -22 55 -26 81 -30
201 l-4 137 195 0 195 0 4 -132 c3 -126 5 -136 35 -194 37 -70 127 -159 199
-195 l49 -24 402 -3 c349 -2 406 -1 433 13 52 27 74 94 48 150 -24 54 -34 55
-455 55 -350 0 -391 2 -422 18 -65 32 -76 59 -79 193 l-4 119 434 0 c266 0
447 4 470 10 68 19 97 94 63 160 -32 63 11 60 -947 60 -728 -1 -878 -3 -905
-15z"/>
<path d="M5944 3960 c-37 -15 -64 -59 -64 -105 0 -53 28 -91 78 -105 23 -6
204 -10 468 -10 l431 0 1 -95 c1 -139 -18 -191 -78 -219 -17 -7 -161 -13 -433
-16 l-409 -5 -24 -28 c-44 -52 -24 -152 36 -177 17 -7 158 -10 430 -8 l405 3
60 29 c77 38 159 120 192 193 24 51 27 73 31 191 l4 132 199 0 199 0 0 -77 c0
-214 -64 -367 -215 -518 -61 -61 -100 -90 -165 -123 -139 -70 -159 -72 -718
-72 -420 0 -497 -2 -522 -15 -37 -19 -50 -43 -50 -95 0 -33 6 -48 30 -71 l30
-30 547 3 548 3 85 29 c109 36 180 72 257 130 121 91 224 221 295 372 52 111
77 214 85 350 l6 112 29 6 c17 3 46 22 65 41 33 33 35 39 30 81 -3 32 -13 55
-31 73 l-26 26 -893 2 c-490 1 -902 -2 -913 -7z"/>
</g>
</svg>
